<svg xmlns="http://www.w3.org/2000/svg" xmlns:xlink="http://www.w3.org/1999/xlink" viewBox="0 0 384.34 409.58"><defs><style>.cls-1{fill:url(#Gradiente_sem_nome_15);}.cls-2{fill:#ffc745;}.cls-3{fill:#492d05;}</style><linearGradient id="Gradiente_sem_nome_15" x1="202.71" y1="397.28" x2="202.71" y2="14.09" gradientTransform="translate(6.97 -33.21) rotate(10.09)" gradientUnits="userSpaceOnUse"><stop offset="0.01" stop-color="#d88121"/><stop offset="0.5" stop-color="#dd8c2d"/><stop offset="1" stop-color="#e09234"/></linearGradient></defs><g id="Camada_2" data-name="Camada 2"><g id="Camada_1-2" data-name="Camada 1"><path class="cls-1" d="M222.28,408.6,51.67,378.25A62.61,62.61,0,0,1,1,305.63l45.17-254A62.61,62.61,0,0,1,118.77,1L289.38,31.32A62.63,62.63,0,0,1,340.07,104l-45.17,254a62.63,62.63,0,0,1-72.62,50.69Z"/><path class="cls-2" d="M116.64,60.25C101.08,81.08,72,100.22,59.5,91.72c-10.22-7-7.89-31.32.52-47.49C76.08,13.34,120.7.1,131.29,11.31,139.87,20.38,127,46.37,116.64,60.25Z"/><path class="cls-2" d="M217.58,194.51c-3.31,23.75-40.89,39.72-70.6,34.69-34.12-5.78-64.8-40.46-57.36-63.89,6.79-21.38,44-29.41,70.83-23.92C188.21,147.08,220.92,170.55,217.58,194.51Z"/><rect class="cls-3" x="119.07" y="92.87" width="13.66" height="31.23" rx="3.5" transform="translate(20.94 -20.37) rotate(10.09)"/><rect class="cls-3" x="190.18" y="105.52" width="13.66" height="31.23" rx="3.5" transform="translate(24.26 -32.63) rotate(10.09)"/><path class="cls-2" d="M316.09,179.1c-.48-4.13-1.29-10.15,2.13-13.34s9.26-.92,12.61,1.37c7.55,5.15,12.8,15,11.72,24.22-.25,2.15-1.12,5.09-3.64,5.54-1,.18-1.29,0-1.3-.85,0-1.48,1-3.35,1.46-4.76,1.82-5.43,3.77-11.12,6.76-16,4.7-7.7,14.22-11.27,22.69-7.59,9.27,4,12.5,15.93,7.79,24.55-1.81,3.32,3.49,5.82,5.29,2.52,5.94-10.88,1.9-25.69-9.09-31.63a24.31,24.31,0,0,0-17.58-1.83c-6.6,1.72-11.49,6.33-14.79,12.16A74.23,74.23,0,0,0,335.49,184c-1.36,3.62-3.13,7.6-3.72,11.43a6.14,6.14,0,0,0,4.59,7.12,9,9,0,0,0,8.58-2.55c4.94-4.89,4-13.61,2.2-19.67a33.41,33.41,0,0,0-10.52-16.08c-5.33-4.46-13.39-8-20.08-4.35-7.08,3.86-7.09,12.8-6.28,19.8.43,3.73,6.27,3.21,5.83-.55Z"/><circle class="cls-3" cx="127.16" cy="185.03" r="4.88"/><circle class="cls-3" cx="169.44" cy="192.55" r="4.88"/><path class="cls-2" d="M245.38,104.19c-11.38-27.62,10-63.65,28.91-66.33,5.25-.74,10.51,1,16,2.92a62.67,62.67,0,0,1,26.48,17.57c15.75,18.1,21.77,53.76,5.15,68.95C303.18,144.45,257.52,133.67,245.38,104.19Z"/></g></g></svg>